<svg width="47" height="65" viewBox="0 0 47 65" fill="none" xmlns="http://www.w3.org/2000/svg">
<path fill-rule="evenodd" clip-rule="evenodd" d="M3 28.2842V36C3 38.2091 4.79086 40 7 40H14.7158L12.7158 38H7C5.89543 38 5 37.1046 5 36V30.2842L3 28.2842ZM12.7158 2H7C5.89543 2 5 2.89543 5 4V9.71582L3 11.7158V4C3 1.79086 4.79086 0 7 0H14.7158L12.7158 2ZM41 9.71564V4C41 2.89543 40.1046 2 39 2H33.2844L31.2844 0H39C41.2091 0 43 1.79086 43 4V11.7156L41 9.71564ZM33.2844 38H39C40.1046 38 41 37.1046 41 36V30.2844L43 28.2844V36C43 38.2091 41.2091 40 39 40H31.2844L33.2844 38Z" fill="white"/>
<rect x="11" y="8.00037" width="24" height="24" rx="1" stroke="white" stroke-width="2"/>
<path d="M1.44 62V51.68H7.05V52.325H2.145V56.465H6.45V57.11H2.145V61.355H7.05V62H1.44ZM13.6137 62L11.3487 58.7H11.2887L9.00867 62H8.22867L10.8987 58.115L8.31867 54.35H9.12867L11.2887 57.515H11.3637L13.5387 54.35H14.3337L11.7537 58.1L14.4237 62H13.6137ZM16.1428 54.35H16.7128L16.7578 55.52H16.8178C16.9878 55.01 17.2728 54.67 17.6728 54.5C18.0828 54.32 18.5878 54.23 19.1878 54.23C19.9378 54.23 20.4978 54.34 20.8678 54.56C21.2378 54.77 21.4878 55.15 21.6178 55.7C21.7578 56.24 21.8278 57.065 21.8278 58.175C21.8278 59.285 21.7578 60.115 21.6178 60.665C21.4878 61.205 21.2378 61.585 20.8678 61.805C20.4978 62.015 19.9378 62.12 19.1878 62.12C18.5578 62.12 18.0528 62.03 17.6728 61.85C17.3028 61.67 17.0428 61.37 16.8928 60.95H16.8178V64.955H16.1428V54.35ZM18.9778 61.505C19.6478 61.505 20.1278 61.43 20.4178 61.28C20.7078 61.13 20.9028 60.83 21.0028 60.38C21.1028 59.93 21.1528 59.195 21.1528 58.175C21.1528 57.155 21.1028 56.42 21.0028 55.97C20.9028 55.52 20.7078 55.22 20.4178 55.07C20.1278 54.92 19.6478 54.845 18.9778 54.845C18.4278 54.845 17.9878 54.94 17.6578 55.13C17.3378 55.31 17.1178 55.6 16.9978 56C16.9178 56.27 16.8678 56.57 16.8478 56.9C16.8278 57.23 16.8178 57.655 16.8178 58.175C16.8178 59.155 16.8678 59.835 16.9678 60.215C17.1078 60.675 17.3378 61.005 17.6578 61.205C17.9778 61.405 18.4178 61.505 18.9778 61.505ZM25.988 62.12C25.398 62.12 24.933 62.06 24.593 61.94C24.253 61.82 23.998 61.605 23.828 61.295C23.658 60.975 23.573 60.515 23.573 59.915C23.573 59.345 23.633 58.905 23.753 58.595C23.883 58.285 24.093 58.065 24.383 57.935C24.683 57.795 25.108 57.725 25.658 57.725C26.278 57.725 27.198 57.745 28.418 57.785V57.14C28.418 56.42 28.363 55.905 28.253 55.595C28.143 55.275 27.938 55.07 27.638 54.98C27.348 54.88 26.863 54.83 26.183 54.83C25.873 54.83 25.498 54.85 25.058 54.89C24.628 54.93 24.288 54.975 24.038 55.025V54.41C24.668 54.29 25.458 54.23 26.408 54.23C27.168 54.23 27.733 54.31 28.103 54.47C28.483 54.63 28.743 54.91 28.883 55.31C29.023 55.7 29.093 56.29 29.093 57.08V62H28.538L28.478 60.83H28.418C28.248 61.35 27.948 61.695 27.518 61.865C27.088 62.035 26.578 62.12 25.988 62.12ZM26.078 61.52C26.618 61.52 27.053 61.47 27.383 61.37C27.723 61.26 27.968 61.03 28.118 60.68C28.228 60.41 28.303 60.135 28.343 59.855C28.393 59.575 28.418 59.245 28.418 58.865V58.295H25.823C25.373 58.295 25.038 58.335 24.818 58.415C24.608 58.485 24.458 58.635 24.368 58.865C24.288 59.085 24.248 59.43 24.248 59.9C24.248 60.35 24.298 60.69 24.398 60.92C24.498 61.14 24.673 61.295 24.923 61.385C25.173 61.475 25.558 61.52 26.078 61.52ZM36.3969 57.35C36.3969 56.59 36.3469 56.04 36.2469 55.7C36.1569 55.36 35.9769 55.135 35.7069 55.025C35.4469 54.905 35.0219 54.845 34.4319 54.845C33.7519 54.845 33.2569 54.98 32.9469 55.25C32.6369 55.51 32.4469 55.85 32.3769 56.27C32.3069 56.68 32.2719 57.27 32.2719 58.04V62H31.5969V54.35H32.1669L32.2119 55.52H32.2719C32.4019 55.12 32.6419 54.805 32.9919 54.575C33.3519 54.345 33.9019 54.23 34.6419 54.23C35.3319 54.23 35.8469 54.33 36.1869 54.53C36.5369 54.72 36.7719 55.02 36.8919 55.43C37.0119 55.83 37.0719 56.415 37.0719 57.185V62H36.3969V57.35ZM41.9203 62.12C41.1703 62.12 40.6103 62.015 40.2403 61.805C39.8703 61.585 39.6153 61.205 39.4753 60.665C39.3353 60.115 39.2653 59.285 39.2653 58.175C39.2653 57.065 39.3303 56.24 39.4603 55.7C39.6003 55.15 39.8553 54.77 40.2253 54.56C40.5953 54.34 41.1553 54.23 41.9053 54.23C42.5353 54.23 43.0403 54.32 43.4203 54.5C43.8003 54.68 44.0653 54.975 44.2153 55.385H44.2753V50.855H44.9503V62H44.3953L44.3353 60.83H44.2753C44.1153 61.34 43.8303 61.685 43.4203 61.865C43.0203 62.035 42.5203 62.12 41.9203 62.12ZM42.1153 61.505C42.6653 61.505 43.1003 61.42 43.4203 61.25C43.7503 61.07 43.9703 60.8 44.0803 60.44C44.1703 60.13 44.2253 59.81 44.2453 59.48C44.2653 59.14 44.2753 58.645 44.2753 57.995C44.2753 57.555 44.2653 57.185 44.2453 56.885C44.2253 56.575 44.1803 56.305 44.1103 56.075C43.9803 55.635 43.7503 55.32 43.4203 55.13C43.1003 54.94 42.6453 54.845 42.0553 54.845C41.4153 54.845 40.9503 54.92 40.6603 55.07C40.3803 55.22 40.1903 55.52 40.0903 55.97C39.9903 56.42 39.9403 57.155 39.9403 58.175C39.9403 59.195 39.9903 59.93 40.0903 60.38C40.1903 60.83 40.3853 61.13 40.6753 61.28C40.9753 61.43 41.4553 61.505 42.1153 61.505Z" fill="white"/>
</svg>
