<svg width="77" height="38" viewBox="0 0 77 38" fill="none" xmlns="http://www.w3.org/2000/svg">
<path d="M38.176 27.192C37.296 27.192 36.552 27.064 35.944 26.808C35.352 26.536 34.92 26.032 34.648 25.296H34.528L34.432 27H32.8V9.168H34.624V16.272H34.744C35.016 15.664 35.432 15.232 35.992 14.976C36.568 14.704 37.304 14.568 38.2 14.568C39.288 14.568 40.112 14.752 40.672 15.12C41.232 15.488 41.624 16.112 41.848 16.992C42.072 17.872 42.184 19.168 42.184 20.88C42.184 22.592 42.064 23.896 41.824 24.792C41.6 25.672 41.208 26.296 40.648 26.664C40.088 27.016 39.264 27.192 38.176 27.192ZM37.48 25.536C38.376 25.536 39.008 25.44 39.376 25.248C39.76 25.04 40.016 24.624 40.144 24C40.288 23.376 40.36 22.336 40.36 20.88C40.36 19.424 40.288 18.392 40.144 17.784C40.016 17.16 39.76 16.744 39.376 16.536C39.008 16.328 38.376 16.224 37.48 16.224C36.792 16.224 36.24 16.328 35.824 16.536C35.424 16.744 35.144 17.072 34.984 17.52C34.84 17.904 34.744 18.36 34.696 18.888C34.648 19.4 34.624 20.064 34.624 20.88C34.624 21.664 34.648 22.312 34.696 22.824C34.744 23.336 34.832 23.784 34.96 24.168C35.12 24.648 35.4 25 35.8 25.224C36.216 25.432 36.776 25.536 37.48 25.536ZM48.2665 27.192C46.9865 27.192 46.0665 26.936 45.5065 26.424C44.9465 25.896 44.6665 24.96 44.6665 23.616C44.6665 22.688 44.7625 21.968 44.9545 21.456C45.1625 20.928 45.5065 20.552 45.9865 20.328C46.4825 20.088 47.1705 19.968 48.0505 19.968C48.4985 19.968 49.8025 20.008 51.9625 20.088V19.272C51.9625 18.28 51.8825 17.576 51.7225 17.16C51.5625 16.728 51.2665 16.456 50.8345 16.344C50.4185 16.216 49.7065 16.152 48.6985 16.152C48.2505 16.152 47.6825 16.176 46.9945 16.224C46.3225 16.272 45.7785 16.328 45.3625 16.392V14.904C46.4825 14.68 47.7865 14.568 49.2745 14.568C50.5545 14.568 51.5065 14.712 52.1305 15C52.7705 15.272 53.2025 15.736 53.4265 16.392C53.6665 17.048 53.7865 18.008 53.7865 19.272V27H52.1545L52.0585 25.296H51.9385C51.6505 26.064 51.1785 26.576 50.5225 26.832C49.8825 27.072 49.1305 27.192 48.2665 27.192ZM48.9145 25.608C49.5865 25.608 50.1305 25.544 50.5465 25.416C50.9785 25.272 51.2985 24.992 51.5065 24.576C51.8105 23.952 51.9625 23.112 51.9625 22.056V21.36H48.5305C47.9385 21.36 47.4985 21.416 47.2105 21.528C46.9385 21.624 46.7465 21.824 46.6345 22.128C46.5225 22.416 46.4665 22.872 46.4665 23.496C46.4665 24.104 46.5305 24.552 46.6585 24.84C46.7865 25.128 47.0185 25.328 47.3545 25.44C47.6905 25.552 48.2105 25.608 48.9145 25.608ZM64.3225 26.88C63.9385 26.96 63.4665 27.032 62.9065 27.096C62.3625 27.16 61.8505 27.192 61.3705 27.192C60.0265 27.192 59.0345 26.984 58.3945 26.568C57.7705 26.136 57.3625 25.496 57.1705 24.648C56.9945 23.8 56.9065 22.544 56.9065 20.88C56.9065 19.216 57.0185 17.952 57.2425 17.088C57.4665 16.208 57.8905 15.568 58.5145 15.168C59.1385 14.768 60.0665 14.568 61.2985 14.568C61.7945 14.568 62.3145 14.6 62.8585 14.664C63.4025 14.728 63.8585 14.8 64.2265 14.88V16.392C63.4265 16.232 62.5945 16.152 61.7305 16.152C60.8345 16.152 60.1785 16.272 59.7625 16.512C59.3625 16.752 59.0905 17.192 58.9465 17.832C58.8185 18.472 58.7545 19.488 58.7545 20.88C58.7545 22.304 58.8265 23.336 58.9705 23.976C59.1145 24.6 59.3865 25.032 59.7865 25.272C60.2025 25.496 60.8665 25.608 61.7785 25.608C62.6425 25.608 63.4905 25.528 64.3225 25.368V26.88ZM74.0245 27L70.3525 21.624H68.9365V27H67.1125V9.168H68.9365V20.016H70.3525L74.0245 14.76H76.0165L71.8405 20.688L76.0885 27H74.0245Z" fill="white"/>
<path d="M0.292892 18.2929C-0.0976315 18.6834 -0.0976315 19.3166 0.292892 19.7071L6.65685 26.0711C7.04738 26.4616 7.68054 26.4616 8.07107 26.0711C8.46159 25.6805 8.46159 25.0474 8.07107 24.6569L2.41421 19L8.07107 13.3431C8.46159 12.9526 8.46159 12.3195 8.07107 11.9289C7.68054 11.5384 7.04738 11.5384 6.65685 11.9289L0.292892 18.2929ZM19 18L1 18V20L19 20V18Z" fill="white"/>
</svg>
