<svg width="33" height="105" viewBox="0 0 33 105" fill="none" xmlns="http://www.w3.org/2000/svg">
<path d="M9.425 98L4.175 89.12H4.115V98H3.44V87.68H4.16L9.395 96.53H9.455V87.68H10.145V98H9.425ZM18.0904 94.4H13.1854C13.1854 95.31 13.2354 95.975 13.3354 96.395C13.4354 96.815 13.6504 97.11 13.9804 97.28C14.3104 97.44 14.8404 97.52 15.5704 97.52C15.9004 97.52 16.2754 97.5 16.6954 97.46C17.1254 97.42 17.5004 97.375 17.8204 97.325V97.925C17.5604 97.985 17.2104 98.03 16.7704 98.06C16.3404 98.1 15.9054 98.12 15.4654 98.12C14.5854 98.12 13.9404 98.01 13.5304 97.79C13.1204 97.57 12.8454 97.195 12.7054 96.665C12.5754 96.125 12.5104 95.3 12.5104 94.19C12.5104 93.06 12.5654 92.24 12.6754 91.73C12.7854 91.22 13.0454 90.845 13.4554 90.605C13.8654 90.355 14.5354 90.23 15.4654 90.23C16.2854 90.23 16.8754 90.345 17.2354 90.575C17.6054 90.805 17.8404 91.18 17.9404 91.7C18.0404 92.21 18.0904 93.03 18.0904 94.16V94.4ZM15.4204 90.83C14.7204 90.83 14.2204 90.9 13.9204 91.04C13.6204 91.18 13.4204 91.45 13.3204 91.85C13.2304 92.25 13.1854 92.91 13.1854 93.83H17.4154V93.56C17.4154 92.74 17.3554 92.14 17.2354 91.76C17.1254 91.38 16.9354 91.13 16.6654 91.01C16.3954 90.89 15.9804 90.83 15.4204 90.83ZM24.7396 98L22.4746 94.7H22.4146L20.1346 98H19.3546L22.0246 94.115L19.4446 90.35H20.2546L22.4146 93.515H22.4896L24.6646 90.35H25.4596L22.8796 94.1L25.5496 98H24.7396ZM27.7938 98V90.95H26.3988V90.35H27.7938V88.13H28.4688V90.35H30.0888V90.95H28.4688V98H27.7938Z" fill="white"/>
<path fill-rule="evenodd" clip-rule="evenodd" d="M3.43323e-05 0L31.4734 33.9015C32.8982 35.4361 32.8982 37.8098 31.4734 39.3445L3.43323e-05 73.2459V70.3064L30.0077 37.9837C30.7201 37.2164 30.7201 36.0295 30.0077 35.2622L3.43323e-05 2.93956V0Z" fill="white"/>
</svg>
