<svg width="45" height="65" viewBox="0 0 45 65" fill="none" xmlns="http://www.w3.org/2000/svg">
<path d="M1.44 50.68H5.115C5.895 50.68 6.47 50.82 6.84 51.1C7.22 51.37 7.46 51.72 7.56 52.15C7.66 52.57 7.71 53.125 7.71 53.815C7.71 54.495 7.655 55.055 7.545 55.495C7.445 55.925 7.205 56.28 6.825 56.56C6.445 56.83 5.875 56.965 5.115 56.965H2.13V61H1.44V50.68ZM5.01 56.32C5.61 56.32 6.05 56.225 6.33 56.035C6.62 55.845 6.805 55.58 6.885 55.24C6.965 54.9 7.005 54.425 7.005 53.815C7.005 53.205 6.965 52.735 6.885 52.405C6.805 52.065 6.62 51.8 6.33 51.61C6.05 51.42 5.61 51.325 5.01 51.325H2.13V56.32H5.01ZM9.7268 61V49.855H10.4018V61H9.7268ZM14.8552 61.12C14.2652 61.12 13.8002 61.06 13.4602 60.94C13.1202 60.82 12.8652 60.605 12.6952 60.295C12.5252 59.975 12.4402 59.515 12.4402 58.915C12.4402 58.345 12.5002 57.905 12.6202 57.595C12.7502 57.285 12.9602 57.065 13.2502 56.935C13.5502 56.795 13.9752 56.725 14.5252 56.725C15.1452 56.725 16.0652 56.745 17.2852 56.785V56.14C17.2852 55.42 17.2302 54.905 17.1202 54.595C17.0102 54.275 16.8052 54.07 16.5052 53.98C16.2152 53.88 15.7302 53.83 15.0502 53.83C14.7402 53.83 14.3652 53.85 13.9252 53.89C13.4952 53.93 13.1552 53.975 12.9052 54.025V53.41C13.5352 53.29 14.3252 53.23 15.2752 53.23C16.0352 53.23 16.6002 53.31 16.9702 53.47C17.3502 53.63 17.6102 53.91 17.7502 54.31C17.8902 54.7 17.9602 55.29 17.9602 56.08V61H17.4052L17.3452 59.83H17.2852C17.1152 60.35 16.8152 60.695 16.3852 60.865C15.9552 61.035 15.4452 61.12 14.8552 61.12ZM14.9452 60.52C15.4852 60.52 15.9202 60.47 16.2502 60.37C16.5902 60.26 16.8352 60.03 16.9852 59.68C17.0952 59.41 17.1702 59.135 17.2102 58.855C17.2602 58.575 17.2852 58.245 17.2852 57.865V57.295H14.6902C14.2402 57.295 13.9052 57.335 13.6852 57.415C13.4752 57.485 13.3252 57.635 13.2352 57.865C13.1552 58.085 13.1152 58.43 13.1152 58.9C13.1152 59.35 13.1652 59.69 13.2652 59.92C13.3652 60.14 13.5402 60.295 13.7902 60.385C14.0402 60.475 14.4252 60.52 14.9452 60.52ZM22.9091 64.045C22.0791 64.045 21.3241 64.01 20.6441 63.94V63.34C21.3141 63.4 22.0291 63.43 22.7891 63.43C23.5291 63.43 24.0741 63.325 24.4241 63.115C24.7741 62.905 24.9991 62.585 25.0991 62.155C25.1991 61.735 25.2491 61.105 25.2491 60.265V59.935H25.1891C25.0691 60.275 24.8341 60.555 24.4841 60.775C24.1441 60.995 23.6091 61.105 22.8791 61.105C22.1791 61.105 21.6541 61.01 21.3041 60.82C20.9641 60.62 20.7341 60.315 20.6141 59.905C20.5041 59.495 20.4491 58.9 20.4491 58.12V53.35H21.1241V58C21.1241 58.75 21.1691 59.295 21.2591 59.635C21.3591 59.975 21.5391 60.205 21.7991 60.325C22.0691 60.435 22.4991 60.49 23.0891 60.49C23.7691 60.49 24.2641 60.36 24.5741 60.1C24.8841 59.84 25.0741 59.505 25.1441 59.095C25.2141 58.675 25.2491 58.08 25.2491 57.31V53.35H25.9241V59.965C25.9241 61.035 25.8491 61.855 25.6991 62.425C25.5491 62.995 25.2591 63.405 24.8291 63.655C24.4091 63.915 23.7691 64.045 22.9091 64.045ZM28.4475 61V49.855H29.1225V61H28.4475ZM31.5959 50.86V49.855H32.3609V50.86H31.5959ZM31.6409 61V53.35H32.3159V61H31.6409ZM36.9042 61.12C36.5442 61.12 36.1442 61.105 35.7042 61.075C35.2742 61.045 34.8992 61.005 34.5792 60.955V60.34C35.0792 60.41 35.4992 60.46 35.8392 60.49C36.1892 60.51 36.5842 60.52 37.0242 60.52C37.5042 60.52 37.8642 60.465 38.1042 60.355C38.3542 60.245 38.5192 60.085 38.5992 59.875C38.6792 59.655 38.7192 59.355 38.7192 58.975C38.7192 58.545 38.6892 58.235 38.6292 58.045C38.5792 57.855 38.4892 57.73 38.3592 57.67C38.2292 57.61 38.0192 57.565 37.7292 57.535L35.8392 57.325C35.2692 57.255 34.8792 57.085 34.6692 56.815C34.4692 56.545 34.3692 56.08 34.3692 55.42C34.3692 54.79 34.4692 54.32 34.6692 54.01C34.8692 53.69 35.1542 53.48 35.5242 53.38C35.8942 53.28 36.3892 53.23 37.0092 53.23C37.3292 53.23 37.6792 53.25 38.0592 53.29C38.4392 53.32 38.7592 53.365 39.0192 53.425V54.025C38.3692 53.895 37.6392 53.83 36.8292 53.83C36.4192 53.83 36.0892 53.865 35.8392 53.935C35.5992 53.995 35.4042 54.135 35.2542 54.355C35.1142 54.575 35.0442 54.9 35.0442 55.33C35.0442 55.71 35.0742 55.99 35.1342 56.17C35.1942 56.35 35.2892 56.475 35.4192 56.545C35.5492 56.615 35.7542 56.665 36.0342 56.695L37.8792 56.905C38.2992 56.955 38.6092 57.04 38.8092 57.16C39.0192 57.27 39.1692 57.465 39.2592 57.745C39.3492 58.015 39.3942 58.425 39.3942 58.975C39.3942 59.545 39.3092 59.985 39.1392 60.295C38.9692 60.595 38.7042 60.81 38.3442 60.94C37.9942 61.06 37.5142 61.12 36.9042 61.12ZM41.9071 61V53.95H40.5121V53.35H41.9071V51.13H42.5821V53.35H44.2021V53.95H42.5821V61H41.9071Z" fill="white"/>
<rect x="3" y="8.80487" width="38" height="30.1951" rx="3" stroke="white" stroke-width="2"/>
<path d="M29.4155 22.5433C30.0945 22.9258 30.0945 23.9035 29.4155 24.2859L18.9908 30.1579C18.3242 30.5333 17.5 30.0517 17.5 29.2866L17.5 17.5427C17.5 16.7776 18.3242 16.2959 18.9908 16.6714L29.4155 22.5433Z" stroke="white" stroke-width="2"/>
<rect x="6" y="3.90244" width="32" height="2" rx="1" fill="white"/>
<rect x="11" width="22" height="2" rx="1" fill="white"/>
</svg>
