<svg width="34" height="105" viewBox="0 0 34 105" fill="none" xmlns="http://www.w3.org/2000/svg">
<path d="M5.44 87.68H9.115C9.895 87.68 10.47 87.82 10.84 88.1C11.22 88.37 11.46 88.72 11.56 89.15C11.66 89.57 11.71 90.125 11.71 90.815C11.71 91.495 11.655 92.055 11.545 92.495C11.445 92.925 11.205 93.28 10.825 93.56C10.445 93.83 9.875 93.965 9.115 93.965H6.13V98H5.44V87.68ZM9.01 93.32C9.61 93.32 10.05 93.225 10.33 93.035C10.62 92.845 10.805 92.58 10.885 92.24C10.965 91.9 11.005 91.425 11.005 90.815C11.005 90.205 10.965 89.735 10.885 89.405C10.805 89.065 10.62 88.8 10.33 88.61C10.05 88.42 9.61 88.325 9.01 88.325H6.13V93.32H9.01ZM13.7268 90.35H14.2818L14.3418 91.91H14.4168C14.5668 91.27 14.8368 90.83 15.2268 90.59C15.6168 90.35 16.1268 90.23 16.7568 90.23V90.92C16.1268 90.92 15.6418 91.045 15.3018 91.295C14.9618 91.535 14.7268 91.89 14.5968 92.36C14.4668 92.82 14.4018 93.43 14.4018 94.19V98H13.7268V90.35ZM23.5621 94.4H18.6571C18.6571 95.31 18.7071 95.975 18.8071 96.395C18.9071 96.815 19.1221 97.11 19.4521 97.28C19.7821 97.44 20.3121 97.52 21.0421 97.52C21.3721 97.52 21.7471 97.5 22.1671 97.46C22.5971 97.42 22.9721 97.375 23.2921 97.325V97.925C23.0321 97.985 22.6821 98.03 22.2421 98.06C21.8121 98.1 21.3771 98.12 20.9371 98.12C20.0571 98.12 19.4121 98.01 19.0021 97.79C18.5921 97.57 18.3171 97.195 18.1771 96.665C18.0471 96.125 17.9821 95.3 17.9821 94.19C17.9821 93.06 18.0371 92.24 18.1471 91.73C18.2571 91.22 18.5171 90.845 18.9271 90.605C19.3371 90.355 20.0071 90.23 20.9371 90.23C21.7571 90.23 22.3471 90.345 22.7071 90.575C23.0771 90.805 23.3121 91.18 23.4121 91.7C23.5121 92.21 23.5621 93.03 23.5621 94.16V94.4ZM20.8921 90.83C20.1921 90.83 19.6921 90.9 19.3921 91.04C19.0921 91.18 18.8921 91.45 18.7921 91.85C18.7021 92.25 18.6571 92.91 18.6571 93.83H22.8871V93.56C22.8871 92.74 22.8271 92.14 22.7071 91.76C22.5971 91.38 22.4071 91.13 22.1371 91.01C21.8671 90.89 21.4521 90.83 20.8921 90.83ZM27.4813 98L24.7963 90.35H25.5013L27.8113 97.055H27.8863L30.1963 90.35H30.8863L28.2013 98H27.4813ZM32.2193 98V96.92H33.0743V98H32.2193Z" fill="white"/>
<path fill-rule="evenodd" clip-rule="evenodd" d="M32.542 0L1.06854 33.9015C-0.356183 35.4361 -0.356181 37.8098 1.06855 39.3445L32.542 73.2459V70.3064L2.53427 37.9837C1.82191 37.2164 1.82191 36.0295 2.53427 35.2622L32.542 2.93956V0Z" fill="white"/>
</svg>
