<svg width="40" height="65" viewBox="0 0 40 65" fill="none" xmlns="http://www.w3.org/2000/svg">
<rect x="1" y="1" width="38" height="38" rx="3" stroke="white" stroke-width="2"/>
<path d="M10.215 62.12C9.745 62.12 9.225 62.1 8.655 62.06C8.095 62.03 7.61 61.99 7.2 61.94V61.28C7.64 61.33 8.13 61.375 8.67 61.415C9.21 61.455 9.66 61.475 10.02 61.475C10.51 61.475 10.9 61.45 11.19 61.4C11.48 61.35 11.74 61.25 11.97 61.1C12.19 60.96 12.335 60.74 12.405 60.44C12.475 60.13 12.51 59.73 12.51 59.24C12.51 58.59 12.48 58.145 12.42 57.905C12.37 57.655 12.245 57.48 12.045 57.38C11.845 57.28 11.475 57.195 10.935 57.125L8.625 56.84C8.105 56.78 7.725 56.645 7.485 56.435C7.245 56.225 7.095 55.965 7.035 55.655C6.975 55.345 6.945 54.9 6.945 54.32C6.945 53.6 7.05 53.04 7.26 52.64C7.48 52.24 7.815 51.96 8.265 51.8C8.725 51.64 9.34 51.56 10.11 51.56C10.62 51.56 11.12 51.58 11.61 51.62C12.1 51.65 12.48 51.7 12.75 51.77V52.385C12.4 52.335 11.985 52.295 11.505 52.265C11.035 52.225 10.605 52.205 10.215 52.205C9.675 52.205 9.235 52.245 8.895 52.325C8.565 52.395 8.305 52.51 8.115 52.67C7.925 52.84 7.8 53.055 7.74 53.315C7.68 53.565 7.65 53.905 7.65 54.335C7.65 54.835 7.675 55.205 7.725 55.445C7.785 55.675 7.9 55.845 8.07 55.955C8.24 56.055 8.51 56.13 8.88 56.18L11.07 56.45C11.5 56.5 11.835 56.56 12.075 56.63C12.315 56.69 12.52 56.79 12.69 56.93C12.86 57.07 12.99 57.275 13.08 57.545C13.14 57.705 13.175 57.91 13.185 58.16C13.205 58.4 13.215 58.73 13.215 59.15C13.215 59.97 13.105 60.595 12.885 61.025C12.675 61.445 12.36 61.735 11.94 61.895C11.52 62.045 10.945 62.12 10.215 62.12ZM15.7977 62V54.95H14.4027V54.35H15.7977V52.13H16.4727V54.35H18.0927V54.95H16.4727V62H15.7977ZM22.2472 62.12C21.3272 62.12 20.6722 62.02 20.2822 61.82C19.8922 61.61 19.6372 61.25 19.5172 60.74C19.4072 60.23 19.3522 59.38 19.3522 58.19C19.3522 57 19.4072 56.15 19.5172 55.64C19.6372 55.12 19.8922 54.755 20.2822 54.545C20.6822 54.335 21.3372 54.23 22.2472 54.23C23.1672 54.23 23.8222 54.335 24.2122 54.545C24.6122 54.755 24.8672 55.12 24.9772 55.64C25.0972 56.15 25.1572 57 25.1572 58.19C25.1572 59.38 25.0972 60.23 24.9772 60.74C24.8672 61.25 24.6122 61.61 24.2122 61.82C23.8222 62.02 23.1672 62.12 22.2472 62.12ZM22.2472 61.52C22.9972 61.52 23.5222 61.44 23.8222 61.28C24.1222 61.12 24.3072 60.835 24.3772 60.425C24.4472 60.005 24.4822 59.26 24.4822 58.19C24.4822 57.11 24.4472 56.365 24.3772 55.955C24.3072 55.535 24.1222 55.245 23.8222 55.085C23.5222 54.915 22.9972 54.83 22.2472 54.83C21.5072 54.83 20.9872 54.915 20.6872 55.085C20.3872 55.245 20.2022 55.535 20.1322 55.955C20.0622 56.365 20.0272 57.11 20.0272 58.19C20.0272 59.26 20.0622 60.005 20.1322 60.425C20.2022 60.835 20.3822 61.12 20.6722 61.28C20.9722 61.44 21.4972 61.52 22.2472 61.52ZM27.3577 54.35H27.9277L27.9727 55.52H28.0327C28.2027 55.01 28.4877 54.67 28.8877 54.5C29.2977 54.32 29.8027 54.23 30.4027 54.23C31.1527 54.23 31.7127 54.34 32.0827 54.56C32.4527 54.77 32.7027 55.15 32.8327 55.7C32.9727 56.24 33.0427 57.065 33.0427 58.175C33.0427 59.285 32.9727 60.115 32.8327 60.665C32.7027 61.205 32.4527 61.585 32.0827 61.805C31.7127 62.015 31.1527 62.12 30.4027 62.12C29.7727 62.12 29.2677 62.03 28.8877 61.85C28.5177 61.67 28.2577 61.37 28.1077 60.95H28.0327V64.955H27.3577V54.35ZM30.1927 61.505C30.8627 61.505 31.3427 61.43 31.6327 61.28C31.9227 61.13 32.1177 60.83 32.2177 60.38C32.3177 59.93 32.3677 59.195 32.3677 58.175C32.3677 57.155 32.3177 56.42 32.2177 55.97C32.1177 55.52 31.9227 55.22 31.6327 55.07C31.3427 54.92 30.8627 54.845 30.1927 54.845C29.6427 54.845 29.2027 54.94 28.8727 55.13C28.5527 55.31 28.3327 55.6 28.2127 56C28.1327 56.27 28.0827 56.57 28.0627 56.9C28.0427 57.23 28.0327 57.655 28.0327 58.175C28.0327 59.155 28.0827 59.835 28.1827 60.215C28.3227 60.675 28.5527 61.005 28.8727 61.205C29.1927 61.405 29.6327 61.505 30.1927 61.505Z" fill="white"/>
</svg>
