<svg width="45" height="62" viewBox="0 0 45 62" fill="none" xmlns="http://www.w3.org/2000/svg">
<path d="M26.2453 0.141663C25.7813 -0.0954703 25.2346 -0.0326157 24.8346 0.313084L11.864 11.4298H5.66666C4.19733 11.4298 3 12.7126 3 14.2868V25.7149C3 27.2891 4.19733 28.5719 5.66666 28.5719H11.864L24.8319 39.6886C25.0746 39.8943 25.3706 40 25.6666 40C25.8639 40 26.0613 39.9543 26.2453 39.86C26.7066 39.62 26.9999 39.12 26.9999 38.5715V1.43018C26.9999 0.881632 26.7066 0.381653 26.2453 0.141663ZM11 25.7149H5.66666V14.2868H11V25.7149ZM24.3333 35.5973L13.6666 26.4548V13.5468L24.3333 4.40434V35.5973Z" fill="#FFFCFC"/>
<path d="M33.7517 9.8984C33.2264 9.34128 32.3838 9.34985 31.8664 9.90983C31.3491 10.4727 31.3544 11.3755 31.8771 11.9297C33.8904 14.0639 34.9997 16.9295 34.9997 20.0008C34.9997 23.0721 33.8904 25.9377 31.8771 28.0719C31.3518 28.6262 31.3464 29.529 31.8664 30.0918C32.1278 30.3747 32.4718 30.5147 32.8131 30.5147C33.1518 30.5147 33.4904 30.3775 33.7517 30.1004C36.2771 27.4291 37.6664 23.8435 37.6664 20.0008C37.6664 16.1581 36.2771 12.5726 33.7517 9.8984Z" fill="#FFFCFC"/>
<path d="M37.5121 5.87285C36.9894 5.31859 36.1441 5.32145 35.6267 5.88143C35.1094 6.4414 35.1121 7.34708 35.6347 7.90134C38.6641 11.1212 40.3335 15.4182 40.3335 20.0008C40.3335 24.5835 38.6641 28.8805 35.6347 32.1003C35.1121 32.6546 35.1094 33.5603 35.6267 34.1203C35.8881 34.4031 36.2294 34.5431 36.5734 34.5431C36.9121 34.5431 37.2508 34.406 37.5121 34.1288C41.0508 30.369 43.0002 25.352 43.0002 20.0008C43.0002 14.6496 41.0508 9.6327 37.5121 5.87285Z" fill="#FFFCFC"/>
<path d="M3.84 61L0.405 50.68H1.155L4.215 59.965H4.29L7.365 50.68H8.07L4.635 61H3.84ZM11.582 61.12C10.662 61.12 10.007 61.02 9.61699 60.82C9.22699 60.61 8.97199 60.25 8.85199 59.74C8.74199 59.23 8.68699 58.38 8.68699 57.19C8.68699 56 8.74199 55.15 8.85199 54.64C8.97199 54.12 9.22699 53.755 9.61699 53.545C10.017 53.335 10.672 53.23 11.582 53.23C12.502 53.23 13.157 53.335 13.547 53.545C13.947 53.755 14.202 54.12 14.312 54.64C14.432 55.15 14.492 56 14.492 57.19C14.492 58.38 14.432 59.23 14.312 59.74C14.202 60.25 13.947 60.61 13.547 60.82C13.157 61.02 12.502 61.12 11.582 61.12ZM11.582 60.52C12.332 60.52 12.857 60.44 13.157 60.28C13.457 60.12 13.642 59.835 13.712 59.425C13.782 59.005 13.817 58.26 13.817 57.19C13.817 56.11 13.782 55.365 13.712 54.955C13.642 54.535 13.457 54.245 13.157 54.085C12.857 53.915 12.332 53.83 11.582 53.83C10.842 53.83 10.322 53.915 10.022 54.085C9.72199 54.245 9.53699 54.535 9.46699 54.955C9.39699 55.365 9.36199 56.11 9.36199 57.19C9.36199 58.26 9.39699 59.005 9.46699 59.425C9.53699 59.835 9.71699 60.12 10.007 60.28C10.307 60.44 10.832 60.52 11.582 60.52ZM16.3924 61V49.855H17.0674V61H16.3924ZM24.1308 59.83H24.0708C23.9408 60.23 23.7008 60.545 23.3508 60.775C23.0008 61.005 22.4558 61.12 21.7158 61.12C21.0158 61.12 20.4908 61.025 20.1408 60.835C19.8008 60.635 19.5708 60.335 19.4508 59.935C19.3308 59.525 19.2708 58.935 19.2708 58.165V53.35H19.9458V58C19.9458 58.76 19.9908 59.31 20.0808 59.65C20.1808 59.99 20.3608 60.22 20.6208 60.34C20.8908 60.45 21.3208 60.505 21.9108 60.505C22.5908 60.505 23.0858 60.375 23.3958 60.115C23.7058 59.845 23.8958 59.505 23.9658 59.095C24.0358 58.675 24.0708 58.08 24.0708 57.31V53.35H24.7458V61H24.1758L24.1308 59.83ZM35.7442 56.35C35.7442 55.59 35.6992 55.04 35.6092 54.7C35.5292 54.36 35.3742 54.135 35.1442 54.025C34.9142 53.905 34.5342 53.845 34.0042 53.845C33.3842 53.845 32.9342 53.97 32.6542 54.22C32.3742 54.46 32.1992 54.79 32.1292 55.21C32.0692 55.62 32.0392 56.23 32.0392 57.04V61H31.3642V56.35C31.3642 55.59 31.3192 55.04 31.2292 54.7C31.1492 54.36 30.9892 54.135 30.7492 54.025C30.5192 53.905 30.1442 53.845 29.6242 53.845C29.0042 53.845 28.5492 53.975 28.2592 54.235C27.9792 54.495 27.8042 54.835 27.7342 55.255C27.6742 55.675 27.6442 56.27 27.6442 57.04V61H26.9692V53.35H27.5392L27.5842 54.52H27.6592C27.7692 54.13 27.9842 53.82 28.3042 53.59C28.6342 53.35 29.1342 53.23 29.8042 53.23C30.4642 53.23 30.9492 53.33 31.2592 53.53C31.5792 53.73 31.7942 54.06 31.9042 54.52H31.9792C32.0992 54.13 32.3242 53.82 32.6542 53.59C32.9942 53.35 33.5042 53.23 34.1842 53.23C34.8142 53.23 35.2892 53.33 35.6092 53.53C35.9292 53.72 36.1442 54.02 36.2542 54.43C36.3642 54.84 36.4192 55.425 36.4192 56.185V61H35.7442V56.35ZM43.8873 57.4H38.9823C38.9823 58.31 39.0323 58.975 39.1323 59.395C39.2323 59.815 39.4473 60.11 39.7773 60.28C40.1073 60.44 40.6373 60.52 41.3673 60.52C41.6973 60.52 42.0723 60.5 42.4923 60.46C42.9223 60.42 43.2973 60.375 43.6173 60.325V60.925C43.3573 60.985 43.0073 61.03 42.5673 61.06C42.1373 61.1 41.7023 61.12 41.2623 61.12C40.3823 61.12 39.7373 61.01 39.3273 60.79C38.9173 60.57 38.6423 60.195 38.5023 59.665C38.3723 59.125 38.3073 58.3 38.3073 57.19C38.3073 56.06 38.3623 55.24 38.4723 54.73C38.5823 54.22 38.8423 53.845 39.2523 53.605C39.6623 53.355 40.3323 53.23 41.2623 53.23C42.0823 53.23 42.6723 53.345 43.0323 53.575C43.4023 53.805 43.6373 54.18 43.7373 54.7C43.8373 55.21 43.8873 56.03 43.8873 57.16V57.4ZM41.2173 53.83C40.5173 53.83 40.0173 53.9 39.7173 54.04C39.4173 54.18 39.2173 54.45 39.1173 54.85C39.0273 55.25 38.9823 55.91 38.9823 56.83H43.2123V56.56C43.2123 55.74 43.1523 55.14 43.0323 54.76C42.9223 54.38 42.7323 54.13 42.4623 54.01C42.1923 53.89 41.7773 53.83 41.2173 53.83Z" fill="white"/>
</svg>
